<?xml version="1.0" encoding="utf-8"?>
<!-- Generator: Adobe Illustrator 24.0.2, SVG Export Plug-In . SVG Version: 6.00 Build 0)  -->
<svg version="1.1" id="Слой_1" xmlns="http://www.w3.org/2000/svg" xmlns:xlink="http://www.w3.org/1999/xlink" x="0px" y="0px"
	 viewBox="0 0 122 125" style="enable-background:new 0 0 122 125;" xml:space="preserve">
<style type="text/css">
	.st0{fill:#3D75B9;}
	.st1{fill:#FFFFFF;}
</style>
<g>
	<path class="st0" d="M31.5,90.3c1.7,1.6,3.4,3.3,5.2,4.8c0.9,0.7,2,5.2,1.3,6c-0.3,0.3-1.6,0.3-2,0c-3.6-2.7-6-6-6.5-10.4
		c0.8-0.3,1.7-0.6,2.5-0.8C31.7,90,31.6,90.1,31.5,90.3z"/>
	<path class="st0" d="M90.3,89.8c0.6,0.2,1.3,0.5,2.1,0.8c-0.3,4.5-2.9,7.9-6.6,10.6c-0.4,0.3-1.3,0.5-1.5,0.3
		c-0.4-0.4-0.7-1.1-0.6-1.5c0.6-2.3,0.4-4.8,3.4-6.2C88.5,93.2,89.2,91.3,90.3,89.8z"/>
	<path class="st0" d="M48.2,95c-2.7-0.1-5.5-0.3-8.2-0.4c-3.2-0.2-5.8-2-6-4.8c-0.1-1.5,0.9-3.2,1.4-4.8c-0.5,0.2-1.4,0.5-2.4,0.9
		c-1.1-1.4-2.2-2.8-3.4-4.3c1.3-0.2,2.3-0.4,3.3-0.6c0.1-0.2,0.1-0.4,0.2-0.6c-3.5,0.4-5-1.9-7.1-3.5c-1.5-1.2-3.6-2-5.6-2.6
		c-2.8-0.7-3.4-1.5-2.1-3.8c0.5-1,1.2-1.9,2-3.1c0.4,0.9,0.6,1.5,0.8,2.1c0.2-0.1,0.5-0.1,0.8-0.2c-0.3-1.3-0.4-2.6-1-3.8
		c-2-3.9-3.9-7.7-3.2-12.2c0.4-2.9,1.3-5.6,3.5-7.7c1.4,2.3,2.6,4.4,3.9,6.6c-1.1,0.8-2.4,1.8-3.6,2.7c2.5-0.5,4.9-1,7.3-1.3
		c0.8-0.1,1.8,0.2,2.6,0.6c2.4,1.1,4.6,2.4,7.1,3.7c-0.3,0.3-0.9,0.9-1.5,1.5c5-2.4,7.7,1.9,11.4,3.1c1.2,0.4,0.8,1.3,0,1.8
		c-1.1,0.8-2.4,1.4-3.6,2c-1.2,0.6-2.4,1.2-2,2.5c1-0.6,2-1.2,3-1.9c1.6-1.1,3.2-2.1,4.9-3.2c0.4-0.3,1.1-0.6,1.4-0.4
		c1.2,0.6,2.6,1.2,3.5,2.1c4.4,4.1,5,9.2,4.7,14.6c-0.1,2.8-1.2,3.4-3.9,2.2c-1-0.4-1.9-1.1-3-1.5c-1.4-0.4-3-0.6-4.4-0.7
		c3.1,1.6,6.3,3.3,9.4,4.9c0.3,0.2,0.7,0.5,0.8,0.9c0.5,2.7,1,5.4,0.2,8.3c-4-1.2-7.9-2.3-11.8-3.4c-0.1,0.1-0.1,0.2-0.2,0.3
		c2,0.9,3.9,1.8,5.9,2.7c1.4,0.6,2.8,0.9,4.1,1.5c1.9,0.9,2,2.6,0.1,3.6c-1.1,0.5-2.4,0.7-3.6,0.8c-1.7,0.1-3.3,0-5.1,0.4
		c2.1,0.4,4.2,0.8,6.3,1.2c0.1,0.9,0.3,1.9,0.5,3.3c1.3-1.7,1.1-3.9,3.7-4.4c0.5,2.1,1.1,4.2-0.4,6.2c-0.6,0.8-0.6,2.1-1.2,2.9
		c-0.7,0.8-1.7,1.7-2.8,2c-1.4,0.3-2.4-0.6-2.7-1.9c0-0.1-0.1-0.1-0.1-0.2c-1.8-5.5-1.3-4.8-8.4-5.7c2.6,1.8,7.3,1.4,5.6,5.9
		c-3-0.4-5.9-1.3-8-3.4c-0.7-0.7-1-1.7-1.2-2.6c-0.5-2-0.7-4.1-1.1-6.1c-0.2-1.1,0.1-1.6,1.4-1.6c2.8-0.1,5.5-0.3,8.3-0.5
		C48.2,95.2,48.2,95.1,48.2,95z M24.4,64.8c0.7,0,1.9-0.3,2.4,0.1c3.9,2.5,7.7,5.2,11.4,7.8c0.6,0.4,0.9,1.2,1.3,1.8
		c-0.7,0.4-1.5,1.1-2.3,1.2c-5,0.6-9.6,0-12.2-4.7c-0.1-0.1-0.3-0.2-0.5-0.3c1.3,4.3,4.1,6.5,8.6,6.7c2.2,0.1,4.4-0.2,6.6-0.3
		c0.7,0,1.9,0.3,1.9,0.6c0.4,2,0.9,4.1,0.8,6.2c-0.1,0.9-1.5,1.7-2.5,2.4c-1.6,1.3-1.8,2.4-1,3.5c0.8-0.9,1.7-1.9,2.7-2.8
		c1.3-1,2.6-1.2,4.4-0.6c3,1.1,6.2,1.8,9.8,2.8c-1.2-0.7-2-1.4-3-1.8c-1.9-0.8-3.9-1.5-5.9-2.1c-2.1-0.7-3.1-2.2-3.2-4.2
		c-0.2-2.2,0.2-4.1,2.6-5.3c2.1-1,3.8-0.4,5.5,0.7c0.7,0.5,1.5,1,2.2,1.5c0.2-0.2,0.3-0.4,0.5-0.6c-1.5-1.1-2.8-2.6-4.5-3.4
		c-2.6-1.2-4.8,0.7-6.8,1.6c-1.5-1.7-3-3-4-4.7c-1-1.6-1.5-3.5-2.3-5.2c-0.1,0-0.3,0-0.4,0c-0.1,1.1-0.1,2.1-0.2,3.3
		c-3-1.2-3.8-2-4.7-4.3c-0.4-1-0.6-2.1-1.1-3.2c-1.1-2.8-4.1-3.9-7.4-2.6c5.8,1.3,6.5,1.9,6.2,5.8C25.3,63.1,25.2,63.1,24.4,64.8z"
		/>
	<path class="st0" d="M73.9,95.2c2.5,0.2,5.1,0.4,7.6,0.5c1.5,0.1,1.8,0.7,1.5,1.9c-0.4,1.8-0.4,3.6-0.9,5.4
		c-0.4,1.3-0.9,2.7-1.9,3.6c-2,1.9-4.7,2.5-7.5,2.9c-0.5-3.2,0-3.8,3-4.7c0.8-0.2,1.6-0.7,2.2-1.4c-1.3,0.2-2.6,0.3-3.9,0.5
		c-1.8,0.3-2.9,1.2-3.4,2.8c-0.3,1.1-0.6,2.2-1.1,3.2c-0.9,1.7-3.8,2-4.5,0.5c-1.5-3.1-3.9-6.1-2.4-9.8c0-0.1,0.2-0.2,0.3-0.3
		c2.3,0.4,2.3,2.5,3.6,3.9c0.1-1,0.3-2,0.4-2.9c2.4-0.5,4.7-0.9,7-1.4c0-0.1-0.1-0.3-0.1-0.4c-1.9,0.1-3.7,0.2-5.6,0.2
		c-0.7,0-1.5,0.1-2.1-0.2c-1.1-0.6-2.5-1.3-2.9-2.2c-0.5-1.4,1.1-2,2.4-2.5c2.1-0.8,4.3-1.6,6.5-2.4c0.8-0.3,1.5-0.9,2.4-1.6
		c-4.1,1.2-8,2.3-12.4,3.5c0.2-3,0.3-5.6,0.6-8.2c0-0.4,0.6-0.9,1.1-1.1c2-1.3,4.1-2.6,6.2-3.8c0.9-0.5,1.9-0.7,3.2-1.2
		c-1.9-0.6-3.5-0.4-5,0.6c-1.1,0.7-2.1,1.4-3.2,1.9C63.3,83.3,62,82.8,62,81c0-3.6-0.2-7.5,1-10.8c1-2.5,2.9-5.2,6-6.5
		c1.2-0.5,1.9-0.4,2.9,0.6c1.1,1.1,2.8,1.8,4.3,2.7c1,0.6,2,1.3,3.1,2c0.5-1-0.4-1.8-1.5-2.4c-1.2-0.6-2.5-1.1-3.6-1.8
		c-1.7-1-1.6-1.8,0.2-2.7c1-0.5,2-1,3-1.5c3.7-2,3.7-2,8-1.4c-0.7-0.4-1.5-0.8-2.1-1.2c2.9-1.5,5.4-3.1,8.2-4.1
		c2.7-1,5.4-0.5,7.9,0.9c0.4,0.2,0.7,0.5,1.1,0.8c0.1-0.1,0.3-0.3,0.4-0.4c-1.3-1-2.6-2.1-3.8-3c1.2-2.1,2.5-4.2,4-6.7
		c0.8,1.2,1.8,2.4,2.3,3.7c1.5,3.6,1.8,7.2,0.2,10.9c-0.8,1.9-1.8,3.7-2.5,5.6c-0.4,1.1-0.6,2.3-0.9,3.5c0.2,0.1,0.4,0.1,0.6,0.2
		c0.3-0.5,0.6-1,0.9-1.7c0.4,0.5,0.7,0.9,1,1.3c2.5,4,2.3,4.2-2.3,5.7c-1.8,0.6-3.6,1.6-5,2.8c-1.8,1.7-3.5,3.2-6.3,3.5
		c1,0.2,2,0.4,3.3,0.7c-1.2,1.5-2.3,2.9-3.4,4.3c-1-0.4-1.9-0.7-3.2-1.2c0.4,0.6,0.5,0.9,0.7,1.1c1.8,1.5,2.1,3.2,1.2,5.1
		c-1,2.1-2.7,3.5-5.3,3.7c-2.8,0.2-5.6,0.3-8.4,0.4C73.9,95.1,73.9,95.1,73.9,95.2z M66.1,88.7c0.1,0.1,0.2,0.3,0.3,0.4
		c3.6-1,7.3-2.1,10.9-3.1c0.4-0.1,0.9-0.1,1.2,0.1c1.7,1.1,4.5,1.5,3.7,4.8c1.6-2.4,1.3-3.5-0.8-4.9c-1.1-0.8-2.5-1.3-2.1-3
		c0.3-1.3,0.4-2.6,0.4-3.9c0.1-2.5,0.2-2.5,2.9-2.1c2.1,0.3,4.4,0.6,6.5,0.4c4.5-0.4,7.6-3.1,8-6.7c-2.5,4.9-6.9,5.7-12,5.1
		c-1-0.1-1.8-0.8-2.7-1.2c0.6-0.7,1-1.7,1.8-2.2c3.2-2.3,6.6-4.5,9.9-6.8c1.2-0.9,2.3-1.8,3.9-0.5c-0.8-0.7-1.7-1.5-2.6-1.4
		c-1.1,0.1-2.1,0.8-3.5,1.4c0.4-1.8,0.3-3.5,1.1-4.6c0.7-1,2.5-1.3,3.5-1.9c-3.5-0.8-5.1,0.2-5.8,3.7c-0.2,0.9-0.3,1.8-0.6,2.7
		c-0.7,2.1-2.3,3.5-4.7,4.3c-0.2-1.2-0.3-2.3-0.4-3.3c-0.9,1.6-0.9,3.3-1.7,4.6c-1.2,1.9-3,3.5-4.3,5.1c-2.1-0.5-4.3-1.5-6.5-1.4
		c-2.5,0-3.7,2.2-5,4c1.2-0.6,2.2-1.4,3.3-2c3.2-1.7,6.6-0.1,7.2,3.2c0.6,3.4-0.7,5.3-4.2,6.4C71.2,86.6,68.7,87.7,66.1,88.7z"/>
	<path class="st0" d="M38.8,56.5c-1.4-0.5-2.3-0.8-3-1.2c-2.6-1.5-5.1-3.1-8.2-3.9c-2.3-0.6-4.9-5.2-4.5-7.5c0.3-2,2.1-1.5,3.3-1.6
		c0.6,1.3,1.2,2.5,1.8,3.6c0.3-1.8,0.7-3.5,0.9-5.1c0.2-1.1,0.4-2.2,0.3-3.2c-0.3-3.3,2-5.9,5.6-6.2c1.4-0.1,2.8-0.2,3.3-1.5
		c-2.2,0.3-4.3,0.5-6.5,0.7c-0.8-2.6-0.7-2.7,2-3.1c3.9-0.6,5.6-2.6,5.1-6.3c-0.5-3.9,5.4-8.2,9.1-6.4c1.6,0.8,2.4,3,3.5,4.6
		c0.3,0.4,0.2,1,0.4,1.6c1.4-1.9,1.4-2.3,0-4.5c-1.2-1.9-0.6-2.8,1.8-2.8c3.1,0,4.9,1.7,4.6,4.6c-0.1,1-0.3,2-0.5,3.2
		c-1.1-0.3-2-0.6-3.3-0.9c4.7,4.2,3.8,9.2,3.6,14.1c-0.1,1.3-0.9,1.6-2.2,1c-0.8-0.4-1.7-0.5-2.6-0.8c-0.1,0.2-0.1,0.3-0.2,0.5
		c0.9,0.6,1.9,1.2,2.8,1.8c1.9,1.2,2.6,3.1,1.7,5.1c-0.8,1.6-0.4,2.9,0.2,4.5c0.7,1.7,1.1,3.5,1.1,5.3c0.1,1.2-0.9,1.9-2.4,1.1
		c-0.3-0.2-0.6-0.4-0.9-0.4c-4.5-0.7-5.6-4.2-7.2-7.3c-0.4-0.8,0-2.3,0.5-3.2c0.8-1.5,1.4-2.9,0.7-4.5c-0.9-2-0.3-3.7,1.6-5
		c0.4-0.3,0.9-0.4,1.3-0.6c-0.2-0.2-0.4-0.4-0.6-0.6c-0.7,0.4-1.4,0.8-2,1.2c-1.6,1.3-2.1,4-5.7,2.8c0.2,0.3,0.3,0.5,0.5,0.8
		c0.4,0.1,0.9,0.1,1.3,0.3c2.2,0.5,3.3,2.2,2,3.8c-2.5,3.1-1.6,5.6,0.4,8.4c0.5,0.7,0.3,1.8,0.2,2.7c-0.1,1.1-0.4,2.1-0.6,3.2
		c0.2,0.1,0.3,0.1,0.5,0.2c0.5-1,1-2,1.5-2.9c9.6,2.5,10.3,9.5,9.4,15.5c-0.6-0.4-1.1-0.7-1.4-1.2c-1.1-1.8-2.7-2.9-4.8-3.6
		c-0.4-0.1-0.7-1.1-0.6-1.6c0.2-0.8,0.8-1.4,1.6-2.7c-1.1,0.7-1.9,0.9-2.1,1.5c-0.9,1.6-2.4,1.9-3.7,1.1c-2.7-1.6-5.3-3.5-7.6-5.5
		c-0.7-0.6-0.8-2.1-0.7-3.1c0.2-1.7,0.6-3.4,1.2-4.9c0.9-2.3,1.2-4.5,0-6.8c-1-1.9-0.7-3.7,0.7-5.5c1.1-1.4,1.9-3.1,2.9-4.5
		c0.4-0.6,1-1.2,1.6-1.8c1-1,2-2,3.1-2.8c1-0.7,2.1-1.3,3.2-1.9c-1.4-0.6-2.8,0.1-4.1,1.3c-1,1-2.2,1.9-3.4,2.9
		c-2.5-3.2-1.2-6.1,0-9.1c-2,1.6-3.7,4.4-2.9,6.2c1.7,4.4-0.8,7.5-3.4,10.6c-1.3-0.3-2.6-0.5-4-0.8c1.3,1.1,2.7,1.9,3.4,3
		c0.8,1.3,1.2,2.8,1.4,4.3c0.1,1.4-0.1,2.9-0.5,4.4C38.3,49.7,37.1,52.7,38.8,56.5z M33.2,50.3c0.2-0.1,0.4-0.1,0.5-0.2
		c0.4-1.5,0.8-3.1,1.1-4.6c0.4-1.8-0.8-2.6-1.7-3.2c-0.1,1.4-0.4,2.8-0.4,4.1C32.8,47.6,33.1,49,33.2,50.3z"/>
	<path class="st0" d="M83.3,56c1.4-3.4,0.5-6.6-0.8-9.7C81,42.9,82.9,40,84,37.1c0.3-0.8,1.8-1.2,2.8-2.1c-1.2,0.2-2.4,0.4-4,0.7
		c-1.1-1.7-2.6-3.6-3.6-5.7c-0.5-1,0-2.4,0.3-3.6c0.7-3-0.6-5.3-2.6-7.4c0.9,2.9,2.1,5.7-0.1,8.9c-1.1-0.9-2.3-1.6-3.3-2.6
		c-1.2-1.1-2.2-2.2-3.7-1.8c1,1,2.2,2,3.3,3.1c0.1,0.1,0.2,0.4,0.4,0.4c3.8,1.7,4.6,5.7,7,8.4c1.1,1.3,1.1,2.8,0.5,4.3
		c-1.2,2.6-1,5.1,0,7.8c2.4,6.3,1.4,8.5-5,11.8c-0.7,0.4-1.5,0.7-2.3,1.1c-1.5,0.7-2.8,0.8-3.7-0.9c-0.3-0.5-1-0.8-2-1.5
		c0.8,1.6,1.3,2.6,1.9,3.7c-1.5,0.8-3,1.4-4.3,2.3c-1.1,0.9-2,2.1-3.3,3.6c-0.4-3.8,0-7,1.2-10.1c1.4-3.6,5-4.3,8.3-6
		c0.5,1,1,2,1.5,2.9c0.1,0,0.3,0,0.4,0c-0.1-1-0.1-2.1-0.5-3c-0.5-1.2-0.4-2.3,0.4-3.3c2-2.6,2.5-5.1,0.3-7.9
		c-1.5-2-0.4-3.4,3.3-4.5c-3.6,0.3-4.2-3.4-7.5-4.6c0.8,0.8,1.1,1.3,1.5,1.6c1.4,1.1,1.8,2.4,1.2,4c-0.8,1.9-0.4,3.6,0.8,5.2
		c0.9,1.2,0.9,2.4,0.1,3.7c-0.9,1.5-1.4,3.4-2.8,4.4c-1.8,1.4-4.1,2.1-6.3,2.9c-0.2,0.1-1.3-0.8-1.2-1.2c0.1-1.6,0.3-3.4,0.9-4.9
		c0.7-1.8,1.4-3.3,0.3-5.2c-0.9-1.7,0-3.7,1.8-4.9c0.9-0.6,1.9-1.2,2.7-2.2c-1,0.2-2,0.3-2.9,0.7c-1.4,0.7-2.1,0.2-2.2-1
		c-0.4-3.8-0.3-7.6,1.2-11.2c0.4-1,1.4-1.7,2.4-2.8c-1.1,0.3-1.9,0.6-3,0.9c-0.6-1.9-1.2-3.9-0.2-5.8c0.8-1.4,2.4-2,4.1-2
		c2.5,0.1,3.1,0.9,1.8,2.8c-1.1,1.6-0.9,3-0.3,4.5c0.9-1.7,1.8-3.4,2.7-5.1c0.7-1.2,1.9-1.6,3.4-1.5c2.9,0.2,5.1,1.6,6.8,3.6
		c0.6,0.7,0.5,2,0.5,3c-0.2,4.2,0.9,5.6,5.4,6.5c2.4,0.5,2.5,0.7,1.6,3c-2.1-0.2-4.2-0.4-6.4-0.6c0.4,1,1.5,1.3,2.9,1.4
		c3.2,0.2,5.6,2.6,5.8,5.6c0.1,1.7,0.6,3.4,0.8,5.2c0.1,1.2,0,2.5,0.4,3.9c0.6-1.2,1.2-2.3,1.9-3.6c3.1-0.5,4,0.5,2.9,3.5
		c-1.1,3.2-2.9,5.8-6.9,6.3c-1,0.1-1.9,0.9-2.7,1.4c-1.7,0.9-3.3,1.9-5,2.8C83.6,56.3,83.5,56.1,83.3,56z M88.5,41.4
		c-1.4,0.6-2,1.7-1.5,3.4c0.4,1.4,0.6,2.9,1,4.4c1.1-1.1,1.5-2.3,1.1-3.8C88.7,44.2,88.6,42.9,88.5,41.4z"/>
	<path class="st0" d="M95.3,80.1c1.9-2.9,4.3-4.6,7.6-5.2c1.1-0.2,1.9,0,1.8,1.2c-0.4,6.4-3.3,11.5-11.1,12.9
		c-0.7,0.1-2.1-0.1-2.2-0.4c-0.3-0.8-0.4-1.9,0-2.7c0.6-1.2,1.6-2.3,2.6-3.3c0.5-0.4,1.4-0.6,2.1-0.7c0.8-0.1,1.6,0.2,2.6-0.2
		C97.6,81.2,96.5,80.7,95.3,80.1z"/>
	<path class="st0" d="M27,79.9c-1.7,0.9-2.8,1.4-3.9,1.9c0.2,0.2,0.3,0.4,0.3,0.4c4-1.2,5.5,1.6,7.1,3.9c0.4,0.6,0.3,1.7-0.1,2.3
		c-0.3,0.4-1.5,0.7-2.2,0.6c-5.8-0.7-9.8-4.5-10.8-10.3c-0.2-1.2,0-2.5,0-3.7c1.5,0.3,3.2,0.3,4.4,0.9C23.7,76.9,25.2,78.3,27,79.9z
		"/>
	<path class="st0" d="M92.8,27.3c2.9,1.5,6.5,10.7,5.7,13.9c-4,0.2-4.5-0.3-4.6-3.9c-0.1-1.4-0.6-2.9-1.2-4.2
		C91.7,31.1,91.9,29.2,92.8,27.3z"/>
	<path class="st0" d="M29.1,27.4c1.1,2.1,1.2,4-0.1,6.1c-0.7,1.2-1.1,2.7-1.1,4c0.1,3.2,0.1,3.3-3.4,3.8c-0.3,0.1-0.7,0.1-1,0.2
		C22.5,38,26.2,28.7,29.1,27.4z"/>
	<path class="st0" d="M30.4,26.3c-0.3-2.6,2.3-5.2,6.8-6.5c0.5,1.6,0.8,3.2-0.4,4.6C35.1,26.3,32.7,26.2,30.4,26.3z"/>
	<path class="st0" d="M84.9,19.7c2.4,1.2,5,2.3,6.4,4.6c0.3,0.5,0.5,1.2,0.2,1.6c-0.2,0.3-1.1,0.4-1.7,0.4
		C85.1,25.9,83.3,23.6,84.9,19.7z"/>
	<path class="st1" d="M24.4,64.8c0.8-1.8,1-1.8,5.2,0.1c0.2-3.9-0.5-4.5-6.2-5.8c3.2-1.2,6.2-0.2,7.4,2.6c0.4,1,0.7,2.1,1.1,3.2
		c0.8,2.3,1.7,3.1,4.7,4.3c0.1-1.2,0.1-2.2,0.2-3.3c0.1,0,0.3,0,0.4,0c0.7,1.7,1.2,3.6,2.3,5.2c1,1.6,2.6,3,4,4.7
		c2-1,4.2-2.9,6.8-1.6c1.7,0.8,3,2.2,4.5,3.4c-0.2,0.2-0.3,0.4-0.5,0.6c-0.7-0.5-1.5-1-2.2-1.5c-1.7-1.1-3.5-1.7-5.5-0.7
		c-2.4,1.2-2.8,3.1-2.6,5.3c0.2,2,1.1,3.5,3.2,4.2c2,0.7,4,1.3,5.9,2.1c0.9,0.4,1.7,1,3,1.8c-3.6-1-6.8-1.7-9.8-2.8
		c-1.8-0.6-3.1-0.5-4.4,0.6c-1,0.9-1.9,1.9-2.7,2.8c-0.8-1.1-0.6-2.3,1-3.5c0.9-0.7,2.4-1.6,2.5-2.4c0.1-2-0.3-4.1-0.8-6.2
		c-0.1-0.3-1.3-0.6-1.9-0.6c-2.2,0-4.4,0.4-6.6,0.3c-4.6-0.2-7.3-2.4-8.6-6.7c0.2,0.1,0.4,0.2,0.5,0.3c2.6,4.7,7.2,5.3,12.2,4.7
		c0.8-0.1,1.5-0.8,2.3-1.2c-0.4-0.6-0.7-1.4-1.3-1.8c-3.7-2.7-7.5-5.3-11.4-7.8C26.2,64.5,25.1,64.8,24.4,64.8z"/>
	<path class="st1" d="M66.1,88.7c2.6-1,5.1-2.1,7.7-3c3.5-1.2,4.8-3,4.2-6.4c-0.6-3.3-4-4.9-7.2-3.2c-1.1,0.6-2.1,1.4-3.3,2
		c1.2-1.8,2.5-4,5-4c2.2,0,4.4,0.9,6.5,1.4c1.4-1.5,3.1-3.2,4.3-5.1c0.8-1.3,0.8-3,1.7-4.6c0.1,1.1,0.3,2.1,0.4,3.3
		c2.4-0.8,4-2.1,4.7-4.3c0.3-0.9,0.4-1.8,0.6-2.7c0.7-3.5,2.4-4.4,5.8-3.7c-1,0.5-2.8,0.9-3.5,1.9c-0.8,1.1-0.7,2.8-1.1,4.6
		c1.4-0.6,2.4-1.3,3.5-1.4c0.9-0.1,1.8,0.7,2.6,1.4c-1.6-1.2-2.7-0.4-3.9,0.5c-3.2,2.3-6.6,4.5-9.9,6.8c-0.8,0.5-1.2,1.5-1.8,2.2
		c0.9,0.4,1.8,1.1,2.7,1.2c5.1,0.6,9.5-0.3,12-5.1c-0.4,3.7-3.5,6.4-8,6.7c-2.2,0.2-4.4-0.1-6.5-0.4c-2.6-0.4-2.7-0.4-2.9,2.1
		c-0.1,1.3-0.1,2.6-0.4,3.9c-0.4,1.7,1,2.3,2.1,3c2.1,1.4,2.3,2.5,0.8,4.9c0.7-3.3-2-3.7-3.7-4.8c-0.3-0.2-0.8-0.2-1.2-0.1
		c-3.6,1-7.3,2-10.9,3.1C66.3,89,66.2,88.9,66.1,88.7z"/>
	<path class="st0" d="M33.2,50.3c-0.2-1.3-0.4-2.6-0.5-4c0-1.3,0.2-2.6,0.4-4.1c0.9,0.7,2.1,1.5,1.7,3.2c-0.3,1.5-0.7,3.1-1.1,4.6
		C33.6,50.2,33.4,50.2,33.2,50.3z"/>
	<path class="st0" d="M88.5,41.4c0.2,1.4,0.2,2.8,0.5,4c0.4,1.5,0,2.7-1.1,3.8c-0.3-1.5-0.6-3-1-4.4C86.4,43.1,87.1,42,88.5,41.4z"
		/>
</g>
</svg>
