<?xml version="1.0" encoding="utf-8"?>
<!-- Generator: Adobe Illustrator 24.0.2, SVG Export Plug-In . SVG Version: 6.00 Build 0)  -->
<svg version="1.1" id="Слой_1" xmlns="http://www.w3.org/2000/svg" xmlns:xlink="http://www.w3.org/1999/xlink" x="0px" y="0px"
	 viewBox="0 0 122 125" style="enable-background:new 0 0 122 125;" xml:space="preserve">
<style type="text/css">
	.st0{opacity:0.26;}
	.st1{fill:#3D75B9;stroke:#000000;stroke-miterlimit:10;}
	.st2{opacity:0.26;fill:#3D75B9;stroke:#000000;stroke-miterlimit:10;enable-background:new    ;}
	.st3{fill:#3D75B9;}
	.st4{font-family:'ArialMT';}
	.st5{font-size:41.1952px;}
	.st6{fill:none;stroke:#000000;stroke-miterlimit:10;}
	.st7{fill:#FFFFFF;}
	.st8{stroke:#000000;stroke-miterlimit:10;}
</style>
<g>
	<g class="st0">
		<ellipse class="st1" cx="37.01" cy="47.55" rx="6.95" ry="7.29"/>
		<ellipse class="st1" cx="57.32" cy="35.2" rx="6.95" ry="7.29"/>
		<ellipse class="st1" cx="77.65" cy="38.57" rx="6.95" ry="7.29"/>
		<ellipse class="st1" cx="91.55" cy="54.27" rx="6.95" ry="7.29"/>
		<ellipse class="st1" cx="89.41" cy="77.83" rx="6.95" ry="7.29"/>
		<ellipse class="st1" cx="70.17" cy="91.29" rx="6.95" ry="7.29"/>
		<ellipse class="st1" cx="45.56" cy="90.17" rx="6.95" ry="7.29"/>
		<ellipse class="st1" cx="31.66" cy="71.1" rx="6.95" ry="7.29"/>
	</g>
	<path class="st2" d="M110.27,64.37c0,27.88-21.55,50.48-48.13,50.48s-48.13-22.6-48.13-50.48s21.55-50.48,48.13-50.48
		S110.27,36.49,110.27,64.37z M62.68,20.06c-23.33,0-42.25,19.84-42.25,44.31s18.92,44.31,42.25,44.31s42.25-19.84,42.25-44.31
		S86.01,20.06,62.68,20.06z"/>
</g>
<text transform="matrix(0.8975 0 0 1 98 28.7012)" class="st3 st4 st5">Э</text>
<path class="st6" d="M-76.5,10.5"/>
<path class="st1" d="M63.55,15.82c1.73,0.58,3.62,0.94,5.17,1.78c3.89,2.11,5.93,5.28,5.95,9.35c0,0.75,0.26,1.26,0.85,1.78
	c3.93,3.43,5.84,7.61,5.8,12.48C81.23,49.22,74,56.55,65.08,57.65c-6.41,0.79-12.09-0.71-16.66-4.73
	c-4.71-4.14-6.55-9.23-5.43-15.07c0.7-3.63,2.62-6.72,5.63-9.27c0.51-0.43,0.69-0.86,0.68-1.49c-0.03-5.37,4.22-9.99,10.13-11.08
	c0.34-0.06,0.67-0.13,1-0.2C61.47,15.82,62.51,15.82,63.55,15.82z M61.89,35.97c5.63,0,10.24-4.05,10.21-8.98
	c-0.02-4.76-4.61-8.82-9.99-8.83c-5.74-0.01-10.18,4.02-10.24,8.89C51.81,31.85,56.52,35.97,61.89,35.97z"/>
<path class="st1" d="M59.84,104c-1.25-0.1-2.49-0.23-3.74-0.31c-8.99-0.6-17.72-2.31-26.32-4.65c-0.6-0.16-0.81-0.4-0.81-0.95
	c0.02-5.65-0.05-11.31,0.03-16.96c0.1-6.8,2.96-12.54,8.89-16.96c4.44-3.31,9.61-5.05,15.44-5.1c5.56-0.05,11.13-0.04,16.69,0
	c8.49,0.06,15.26,3.15,20.3,9.16c3.23,3.86,4.61,8.27,4.65,13.02c0.05,5.51,0,11.02,0.03,16.53c0,0.53-0.17,0.81-0.72,1.04
	c-4.73,2.02-9.72,3.28-14.89,3.96c-3.58,0.47-7.21,0.73-10.81,1.08c-0.18,0.02-0.36,0.09-0.53,0.14C65.31,104,62.57,104,59.84,104z
	 M61.41,76.96c-0.13-1.25-0.22-2.47-0.4-3.68c-0.66-4.18-2.34-7.99-5.3-11.35c-0.44-0.5-0.9-0.64-1.57-0.62
	c-3.66,0.12-7.22,0.65-10.47,2.23c-7.45,3.63-11.61,9.18-11.91,16.72c-0.21,5.29-0.05,10.59-0.07,15.89c0,0.49,0.16,0.67,0.71,0.82
	c5.37,1.41,10.8,2.52,16.34,3.28c5.11,0.7,10.24,1.09,15.41,1.12c4.78,0.03,9.53-0.33,14.25-1.02c4.22-0.62,8.34-1.56,12.33-2.91
	c1.55-0.52,1.55-0.52,1.55-1.99c0-4.5,0.02-9.01-0.01-13.51c-0.01-1.29-0.03-2.59-0.24-3.85c-0.76-4.64-3.12-8.56-7.08-11.7
	c-4.07-3.22-8.86-4.76-14.31-5.06c-2.19-0.12-3.51,0.52-4.43,2.14c-0.23,0.41-0.48,0.81-0.68,1.23c-1.46,3.08-2.18,6.32-2.59,9.63
	c-0.11,0.9-0.23,1.79-0.34,2.69C62.14,77,61.79,76.98,61.41,76.96z"/>
<path class="st7" d="M61.89,35.97c-5.37,0-10.07-4.12-10.02-8.92c0.06-4.87,4.49-8.9,10.24-8.89c5.39,0.01,9.97,4.07,9.99,8.83
	C72.12,31.92,67.52,35.97,61.89,35.97z M65.92,27.09c0.01-1.93-1.76-3.52-3.91-3.52c-2.16-0.01-3.83,1.52-3.95,3.4
	c-0.1,1.56,1.38,3.55,3.97,3.56C64.14,30.55,65.91,28.98,65.92,27.09z"/>
<path class="st7" d="M61.41,76.96c0.38,0.02,0.73,0.03,1.2,0.05c0.12-0.9,0.23-1.8,0.34-2.69c0.41-3.3,1.13-6.54,2.59-9.63
	c0.2-0.42,0.45-0.82,0.68-1.23c0.91-1.62,2.23-2.26,4.43-2.14c5.45,0.3,10.24,1.84,14.31,5.06c3.97,3.14,6.32,7.06,7.08,11.7
	c0.21,1.27,0.23,2.57,0.24,3.85c0.03,4.5,0.01,9.01,0.01,13.51c0,1.47,0,1.47-1.55,1.99c-3.99,1.35-8.11,2.3-12.33,2.91
	c-4.72,0.69-9.47,1.05-14.25,1.02c-5.17-0.03-10.3-0.42-15.41-1.12c-5.54-0.76-10.98-1.88-16.34-3.28
	c-0.55-0.14-0.71-0.33-0.71-0.82c0.02-5.3-0.14-10.6,0.07-15.89c0.3-7.54,4.45-13.09,11.91-16.72c3.25-1.58,6.81-2.11,10.47-2.23
	c0.67-0.02,1.13,0.12,1.57,0.62c2.95,3.36,4.64,7.17,5.3,11.35C61.19,74.49,61.27,75.71,61.41,76.96z M69.47,86.26
	c0,1.32,0,2.51,0,3.8c2.28,0,4.5,0,6.8,0c0,2.09,0,4.09,0,6.12c1.41,0,2.73,0,4.18,0c0-2.04,0-4.06,0-6.17c2.48,0,4.83,0,7.22,0
	c0-1.29,0-2.48,0-3.75c-2.41,0-4.77,0-7.25,0c0-2.11,0-4.13,0-6.12c-1.47,0-2.81,0-4.23,0c0,2.07,0,4.07,0,6.13
	C73.92,86.26,71.72,86.26,69.47,86.26z"/>
<path class="st1" d="M65.92,27.09c-0.01,1.88-1.78,3.45-3.9,3.44c-2.58-0.02-4.07-2-3.97-3.56c0.12-1.89,1.79-3.41,3.95-3.4
	C64.17,23.57,65.93,25.16,65.92,27.09z"/>
<path class="st1" d="M69.47,86.26c2.25,0,4.45,0,6.72,0c0-2.06,0-4.06,0-6.13c1.42,0,2.76,0,4.23,0c0,1.99,0,4.01,0,6.12
	c2.48,0,4.84,0,7.25,0c0,1.28,0,2.47,0,3.75c-2.39,0-4.74,0-7.22,0c0,2.11,0,4.13,0,6.17c-1.45,0-2.77,0-4.18,0
	c0-2.03,0-4.03,0-6.12c-2.3,0-4.52,0-6.8,0C69.47,88.77,69.47,87.58,69.47,86.26z"/>
<path class="st8" d="M68.91,56.5H55.09c-3.09,0-5.59-2.5-5.59-5.59v-3.82c0-3.09,2.5-5.59,5.59-5.59h13.82
	c3.09,0,5.59,2.5,5.59,5.59v3.82C74.5,54,72,56.5,68.91,56.5z"/>
<line class="st6" x1="73.5" y1="43.5" x2="81.5" y2="38.5"/>
<line class="st6" x1="50.5" y1="44.5" x2="42.5" y2="37.5"/>
<ellipse class="st8" cx="71.5" cy="39" rx="2" ry="1.5"/>
<polyline class="st6" points="74.5,35.5 71.5,35.5 68.5,36.5 "/>
<ellipse class="st8" cx="53.12" cy="38.74" rx="2" ry="1.5"/>
<polyline class="st6" points="50.12,35.24 53.12,35.24 56.12,36.24 "/>
</svg>
