<?xml version="1.0" encoding="utf-8"?>
<!-- Generator: Adobe Illustrator 24.0.2, SVG Export Plug-In . SVG Version: 6.00 Build 0)  -->
<svg version="1.1" id="Слой_1" xmlns="http://www.w3.org/2000/svg" xmlns:xlink="http://www.w3.org/1999/xlink" x="0px" y="0px"
	 viewBox="0 0 122 125" style="enable-background:new 0 0 122 125;" xml:space="preserve">
<style type="text/css">
	.st0{fill:#3D75B9;stroke:#000000;stroke-miterlimit:10;}
</style>
<path d="M278.9,374.4c0.9,0.1,1.6,0.3,2.3,0.3c1.7,0,3.3-0.1,5-0.1c-0.3,1-0.7,2.7-1,2.7c-2-0.1-4-0.5-6-1
	C279.1,376.2,279.1,375.1,278.9,374.4z"/>
<g>
	<path class="st0" d="M57.8,71.7c-0.3-3.4-1.1-6.6-1.9-9.8l0,0c0,0,0,0,0,0c-0.1-0.3-0.1-0.6-0.2-0.9c-0.4-1.3-0.7-2.7-1.1-4
		c-1,1-2,1.9-2.9,2.7l0,0c-0.3,0.3-0.7,0.6-1,1c0.3,1.1,0.6,2.2,1,3.3c0.7,2.6,1.3,5.3,1.5,8.1c0.6,5.7,0,11.3-1.6,16.7
		c-1.2,4.1-3.2,7.4-6.3,9.8c-2.3,1.8-4.9,3.1-7.6,3.9c-2.8,0.8-5.7,1.5-8.6,2.1c-2.5,0.6-5,1.1-7.5,1.1c-3.4,0.1-6.1-1.4-8.1-4.6
		c-1-1.5-1.6-3.3-2.1-5.1c-0.9-3.8-0.9-7.6-0.5-11.4c0.4-3.9,1.3-7.7,2.2-11.4c1.5-6.1,3.4-11.9,5.4-17.8c1.3-3.8,2.7-7.6,4.6-11.1
		c3.3-6.4,8.1-10.6,14.3-12.4c1.9-0.6,3.9-0.6,5.7,0.6c2.1,1.4,3.7,3.4,4,6.4c0.1,1.1,0.2,2.3,0.3,3.4c0,0.6,0.1,1.1,0.2,1.8
		c0.4-0.2,0.9-0.4,1.2-0.6c0.8-0.7,1.6-1.6,2.4-2.3c0.6-0.5,0.7-1.1,0.6-1.9c-0.3-3.3-1.3-6.3-3.3-8.7c-2.9-3.4-6.3-5.1-10.4-4.3
		c-2.1,0.4-4.1,1-6,1.9c-1.6,0.8-5.2,2.6-8.6,6.8c-0.6,0.8-2.3,2.8-3.7,5.7c-0.4,0.8-1,2.1-2.1,4.4c-0.4,0.9-0.8,1.7-1.1,2.1
		c-0.2,0.4-0.4,1-0.7,1.7c-0.9,2.6-1.8,5.2-2.7,7.9c-1.8,5.5-3.5,11.1-4.9,16.8c-0.9,3.7-1.7,7.5-2,11.3c-0.1,1-0.1,1.9-0.2,2.9v2.8
		c0.1,1,0.2,1.9,0.3,2.9c0.5,4.5,1.8,8.6,4.3,12c2.5,3.5,5.7,5.4,9.6,5.6c0.1,0,0.1,0,0.2,0.1c0.1,0,0.3,0,0.4,0c0,0,0.1,0,0.2,0
		c0.7,0.1,1.4,0.1,2.1,0.1c0,0,0.1-0.1,0.1-0.1h-0.3c0.1,0,0.3,0,0.4-0.1c0,0,0.1,0,0.1,0c0,0,0,0,0.1,0c0,0,0.1,0,0.1,0
		c0,0,0,0,0.1,0c0.1,0,0.3,0,0.4,0c0.2,0,0.5-0.1,0.7-0.1c3.1-0.6,6.2-1.2,9.3-1.9c3.3-0.7,6.6-1.8,9.7-3.4
		c6.3-3.2,10.5-8.7,12.5-16.5c0.8-3.1,1.2-6.3,1.5-9.6C58,76.9,58,74.3,57.8,71.7z"/>
	<path class="st0" d="M115.9,87.3c-0.1-4-0.8-7.9-1.7-11.7c-1.4-6.2-3.2-12.1-5.1-18.1c-1.4-4.4-2.9-8.8-4.8-13
		c-1.5-3.4-3.3-6.6-5.6-9.3c-4.1-4.9-9-7.9-14.8-9c-6.2-1.1-10.8,3.7-12.6,8c-0.8,1.8-1,3.8-1.1,5.8c0,0.1,0.1,0.4,0.2,0.5
		c1.1,1.1,2.1,2.3,3.2,3.4c0.2,0.2,0.5,0.3,0.8,0.5c0.1-1.6,0.3-3.1,0.4-4.6l0,0c0.1-0.7,0.1-1.4,0.2-2.1c0-0.1,0.1-0.3,0.1-0.5
		c0.1-0.2,0.1-0.4,0.2-0.6c0,0,0,0.1,0,0.1c0.1-0.2,0.1-0.3,0.2-0.4c0.3-0.5,0.6-1.1,1-1.6l0,0l0,0c1.6-2.1,4-3.6,7.1-2.9
		C86,32.2,88,33,90,34.2c3.9,2.4,6.8,5.9,9.1,10.3c1.9,3.6,3.3,7.5,4.6,11.5c2.4,7.1,4.6,14.3,6.2,21.7c1,4.7,1.7,9.4,1.3,14.2
		c-0.2,2.9-0.8,5.7-2.2,8.3c-1.4,2.7-3.3,4.7-6,5.3c-1.8,0.4-3.5,0.4-5.3,0.1c-2.3-0.4-4.6-0.9-7-1.4c-3.2-0.7-6.3-1.4-9.4-2.8
		c-2.8-1.3-5.4-3-7.5-5.6c-0.5-0.7-1-1.4-1.4-2.1c-0.7-1.5-1.3-3-2-4.5c0-0.2-0.1-0.3-0.2-0.5c-0.8-2.6-1.2-5.3-1.5-8.1
		c-0.3-3.5-0.4-7,0.2-10.4c0.5-3,1.2-6,2-8.9c0.1-0.4,0.1-0.6-0.2-0.8c-1.1-1-2.1-2-3.2-3c-0.1-0.1-0.2-0.2-0.3-0.3
		c-0.5,2-1.1,3.9-1.5,5.9c-0.8,3.3-1.5,6.6-1.7,10.1c-0.3,5.4,0.2,10.7,1.5,15.9c1.7,6.8,5.1,12,10.4,15.4c3,1.9,6.2,3.2,9.6,4.1
		c4.5,1.1,9,2.2,13.6,2.7h-0.3c1.2,0.3,2.5-0.1,3.7-0.1c1.3-0.2,2.7-0.6,3.9-1.2c2.7-1.4,4.7-3.7,6.3-6.6c1.8-3.2,2.7-6.9,3-10.7
		c0.1-0.7,0.1-1.3,0.2-2v-2.7C116,87.7,115.9,87.5,115.9,87.3z"/>
	<path class="st0" d="M105.1,81.1c-0.3-0.1-0.6-0.1-0.9-0.1c-1.7-0.2-3.4-0.4-5-0.7c-1-0.2-1.7-0.8-2.2-1.8c-0.2-0.3-0.3-0.6-0.5-1
		c-1.2-2.5-2.4-4.9-3.9-7.1c-0.8-1.2-1.7-2.4-2.8-3.3c-1.5-1.2-3.2-1.8-5-2.1c-0.1,0-0.3-0.2-0.4-0.3c-0.6-2.9-1.9-5.3-3.7-7.4
		c-1.4-1.6-2.9-3.2-4.4-4.7c-0.1-0.1-0.2-0.2-0.3-0.4c2.6-0.6,5.1-0.7,7.7-0.6c1.3,0.2,2.6,0.3,3.9,0.5c0,0,0.1,0,0.1,0
		c1.4,0.2,2.9,0.3,4.3-0.1c0.3-0.1,0.5-0.2,0.5-0.6c0-0.4-0.3-0.5-0.6-0.5c-1.1-0.1-2.2-0.3-3.3-0.5c-0.1,0-0.2,0-0.3,0
		c-0.1,0-0.2,0-0.3,0L87.4,50l-0.5-0.3c-0.4-0.1-0.8-0.2-1.2-0.3l0,0c-0.8-0.2-1.6-0.5-2.4-0.7c0.3-0.9,0.7-1.6,1.2-2.2
		c1.2-1.7,2-3.5,2.3-5.7c0.1-1,0.2-1.9,0.3-2.9c0-0.4-0.1-0.8-0.5-0.9C86.2,37,86,37.3,86,37.7c0,0.1,0,0.2-0.1,0.3
		c-0.5,2.7-1.4,5.1-3.3,6.9c-0.9,0.9-1.7,1.9-2.1,3.3c-0.1,0-0.1,0-0.2,0c-1.5-0.3-3-0.1-4.4,0.1c-1.5,0.1-3-0.1-4.2-1.2
		c-0.5-0.5-1-1-1.4-1.5c-1.9-2.3-3.3-5-4.7-7.6c-0.2-0.5-0.4-0.9-0.4-1.5c0-7.4,0-14.7,0-22.1c0-0.2,0-0.3,0-0.5c-2.8,0-5.6,0-8.5,0
		c0,0.2,0,0.4,0,0.5c0,6.7,0,13.5,0,20.2c0,1.8-0.3,3.3-1.2,4.8c-1.3,2.2-2.5,4.4-4.1,6.3c-1.4,1.7-3,2.7-5.1,2.4
		c-1.4-0.2-2.8,0-4.2,0.1c-0.7,0-0.7,0.1-1.1-0.7C41,47.2,41,47.1,40.9,47c-0.6-0.8-1.2-1.7-1.9-2.4c-0.9-0.9-1.7-2-2.1-3.3
		c-0.4-1.2-0.7-2.5-1-3.7c-0.1-0.4-0.3-0.6-0.6-0.6c-0.4,0-0.5,0.3-0.5,0.7c0.1,1.8,0.3,3.6,0.8,5.3c0.5,1.5,1.3,2.8,2.2,4
		c0.3,0.5,0.6,1,0.9,1.6c-0.2,0.1-0.3,0.1-0.4,0.2c-1.3,0.4-2.7,0.8-4,1.2c-1.4,0.5-2.9,0.9-4.4,0.8c-0.3,0-0.5,0.1-0.5,0.5
		c0,0.4,0.2,0.5,0.5,0.6c1.4,0.3,2.8,0.2,4.3,0.1c2.8-0.4,5.6-0.7,8.4-0.4c1.1,0.1,2.2,0.3,3.3,0.5c-0.1,0.3-0.2,0.4-0.3,0.5
		c-1.5,1.6-3.1,3.2-4.5,4.9c-1.7,2-3,4.4-3.6,7.2c-0.1,0.3-0.2,0.3-0.4,0.4c-3.1,0.5-5.6,2-7.5,4.9c-1.7,2.5-3.2,5.2-4.4,8
		c-0.7,1.5-1.6,2.3-3,2.5c-1.8,0.2-3.5,0.5-5.3,0.7c-0.3,0-0.5,0.1-0.5,0.5c0,0.4,0.2,0.5,0.5,0.5c1.9,0,3.9,0,5.8-0.1
		c1.6-0.1,2.9-0.9,3.8-2.4c0.5-0.8,1-1.6,1.5-2.4c0.2-0.3,0.4-0.6,0.6-1c0.1,0.8,0.2,1.5,0.3,2.2c0.3,3.3-0.1,6.6-0.8,9.8
		c-0.7,3.1-1.5,6.1-2.2,9.1c-0.1,0.3-0.1,0.6,0.2,0.7c0.3,0.1,0.4-0.2,0.5-0.5c0.4-1,0.7-2.1,1.1-3.1c1-3,2.1-5.9,2.8-9
		c0.8-3.5,1.2-7.1,0.5-10.7c-0.3-1.3,0-2.1,0.8-2.9c0.9-0.9,1.8-1.9,3.1-2.3c0.8-0.3,1.5-0.5,2.3-0.4c0.3,2.7,0.5,5.3,0.8,8
		c0.4,3.7,0.8,7.3,1.1,11c0.2,2.6-0.6,4.8-2.5,6.3c-0.5,0.4-1,0.7-1.5,1.1c-0.4,0.3-0.5,0.8-0.4,1.2c0.2,0.4,0.6,0.6,1,0.5
		c1.2-0.5,2.3-1.2,3.3-2.2c1.6-1.7,2.4-3.8,2.5-6.3c0.1-2.2,0-4.4-0.1-6.5c-0.1-4-0.2-8.1-0.3-12.1c-0.1-3.4,0.9-6.3,3.2-8.5
		c1.4-1.4,2.9-2.8,4.3-4.1c3.9-3.6,7.8-7.3,11.3-11.5c0.4-0.4,0.7-0.9,1.1-1.3c0.1,0.1,0.1,0.2,0.2,0.3c2.3,2.9,4.8,5.6,7.4,8.1
		c2.7,2.6,5.5,5.2,8.3,7.8c1.1,1.1,2.2,2.2,2.9,3.7c0.9,1.8,1.1,3.7,1.1,5.7c0,3.4-0.1,6.9-0.2,10.3c0,2.7-0.2,5.4-0.1,8
		c0.1,4.6,2.3,7.1,5.8,8.6c0.4,0.2,0.8-0.1,1-0.5c0.2-0.5,0-0.9-0.4-1.2c-0.3-0.2-0.5-0.3-0.8-0.5c-1.2-0.8-2.2-1.8-2.8-3.3
		s-0.5-3.1-0.4-4.7c0.5-4.6,0.9-9.2,1.4-13.7c0.1-1.4,0.2-2.7,0.4-4.1c1.3,0.1,2.7,0.3,3.8,1.3c0.9,0.8,1.7,1.8,2.5,2.7
		c0.1,0.1,0.1,0.3,0.1,0.4c-0.8,3.6-0.6,7.2,0.1,10.8c0.9,4.7,2.7,9,4.2,13.4c0,0.1,0.3,0.2,0.4,0.3c0.1-0.2,0.2-0.4,0.2-0.6
		c-0.1-0.5-0.2-1.1-0.4-1.6C95,93,94.2,90,93.6,87c-0.6-2.8-0.8-5.7-0.6-8.7c0.1-0.7,0.2-1.3,0.3-2.1c0.2,0.2,0.3,0.4,0.3,0.5
		c0.6,0.9,1.1,1.9,1.7,2.8c1,1.5,2.2,2.4,3.9,2.5c1.8,0.1,3.5,0.1,5.2,0.1c0.2,0,0.4,0.1,0.6,0c0.2-0.1,0.4-0.3,0.4-0.5
		C105.5,81.4,105.3,81.2,105.1,81.1z"/>
</g>
</svg>
