<?xml version="1.0" encoding="utf-8"?>
<!-- Generator: Adobe Illustrator 24.0.2, SVG Export Plug-In . SVG Version: 6.00 Build 0)  -->
<svg version="1.1" id="Слой_1" xmlns="http://www.w3.org/2000/svg" xmlns:xlink="http://www.w3.org/1999/xlink" x="0px" y="0px"
	 viewBox="0 0 122 125" style="enable-background:new 0 0 122 125;" xml:space="preserve">
<style type="text/css">
	.st0{fill:#3D75B9;stroke:#000000;stroke-miterlimit:10;}
	.st1{stroke:#000000;stroke-width:0;stroke-linecap:round;stroke-linejoin:round;}
	.st2{stroke:#000000;stroke-width:0.5;stroke-linecap:round;stroke-linejoin:round;}
	.st3{fill:#FFFFFF;stroke:#000000;stroke-width:0;stroke-linecap:round;stroke-linejoin:round;}
</style>
<g>
	<path class="st0" d="M61,9.54C31.4,9.54,7.41,33.25,7.41,62.5c0,29.25,23.99,52.96,53.59,52.96c29.6,0,53.59-23.71,53.59-52.96
		C114.59,33.25,90.6,9.54,61,9.54z M61,110.16c-26.64,0-48.23-21.34-48.23-47.66c0-26.32,21.6-47.66,48.23-47.66
		s48.23,21.34,48.23,47.66C109.23,88.82,87.64,110.16,61,110.16z"/>
	<path class="st1" d="M50.62,61c0,0,0-0.01,0.01-0.01c-0.02-0.01-0.04-0.03-0.06-0.04C50.59,60.96,50.61,60.98,50.62,61z"/>
	<path class="st2" d="M97.61,41.55c-1.14-1.59-2.66-2.31-3.39-1.62c-0.56,0.53-0.5,1.74,0.08,2.99l-2.8,1.72
		c-0.4-0.04-0.9-0.04-1.58-0.02c-0.8,0.01-1.48,0.08-1.96,0.13c-3.45,2.41-6.91,4.82-10.36,7.22c-1.88,1.96-3.77,3.92-5.65,5.89
		c-0.26,0.29-0.51,0.58-0.77,0.87c-0.02-0.01-0.03-0.02-0.05-0.04c-0.51-0.7-0.84-1.34-1.04-1.79c-0.11-0.25-0.95-2.17-0.71-3.3
		c0.14-0.67,0.22-0.95,0.26-1.07c-0.03,0.17-0.07,0.32-0.1,0.5c0.04-0.23,0.1-0.44,0.15-0.66c0.06-0.13,0.1-0.22,0.08-0.31
		c0.27-0.89,0.64-1.64,1.03-2.24c0.45-0.7,1.31-1.59,1.31-1.59c0,0,0,0,0,0c1.03,0.64,2.31,0.77,3.48,0.22
		c1.93-0.91,2.8-3.31,1.94-5.37c-0.86-2.05-3.12-2.98-5.04-2.07c-1.93,0.91-2.8,3.31-1.94,5.37c-0.65,1.29-1.43,3.14-2,5.45
		c0,0,0,0,0,0c-0.21,0.66-0.4,1.46-0.54,2.38c-0.13,0.89-0.16,1.69-0.15,2.37c-0.8-0.94-1.36-1.57-2.52-2.34
		c-0.74-0.49-1.32-0.88-2.21-1.16c-0.48-0.15-1.17-0.31-2.02-0.31c1.23-0.6,2.08-1.74,2.08-3.07c0-1.94-1.79-3.52-3.99-3.52
		c-2.21,0-3.99,1.57-3.99,3.52c0,2.05,2.35,3.44,3.99,3.52c0.17,0.01,0.32,0,0.44-0.01c1.01,0.11,3.23,0.49,5.37,2.22
		c1.49,1.2,2.36,2.57,2.83,3.45c0.05-0.03,0.12-0.07,0.19-0.13l-0.19,0.13c-0.95,0.6-2,1.58-3.34,2.84
		c-1.01,0.95-1.85,1.88-2.59,2.77c-0.64-0.37-1.19-0.48-1.51-0.21c-0.4,0.33-0.36,1.15,0,2.17c-0.25,0.36-0.5,0.71-0.7,1.02
		c-0.06,0.09-0.12,0.18-0.17,0.27c-0.07-0.01-0.14-0.02-0.21-0.02c-1.57,0-2.84,1.35-2.84,3.02c0,0.3,0.05,0.58,0.13,0.85
		C40.97,83.58,33.27,89.8,33.55,90.23c0.28,0.44,8.77-5.07,25.41-16.5c0.12,0.02,0.24,0.04,0.37,0.04c0.96,0,1.81-0.51,2.32-1.29
		c0.78-0.24,1.56-0.47,2.34-0.71c0.11-0.08,0.21-0.15,0.32-0.23c0.71,0.45,1.32,0.59,1.67,0.3c0.32-0.27,0.35-0.87,0.17-1.62
		c2.63-1.89,5.27-3.78,7.9-5.67c-0.27-1.8-0.84-3.39-1.62-4.53c6.51-3.66,13.02-7.32,19.54-10.98c0.1-0.39,0.24-0.98,0.36-1.7
		c0.08-0.47,0.14-0.84,0.18-1.15l2.78-1.71c1.09,1.28,2.39,1.82,3.05,1.2C99.08,44.98,98.75,43.13,97.61,41.55z M97.93,45.23
		c-0.44,0.3-1.4-0.18-2.29-1.16c-0.07-0.08-0.17-0.1-0.26-0.05c-0.84,0.51-3.3,1.85-3.39,2.07c-0.04,0.1-0.36,1.82-0.61,2.53
		c-0.02,0.06-0.06,0.09-0.1,0.12c-6.58,3.72-13.17,7.44-19.75,11.16c-0.13,0.07-0.16,0.25-0.06,0.36c0.41,0.49,0.89,1.2,1.28,2.12
		c0.3,0.7,0.46,1.35,0.56,1.88c0.02,0.09-0.02,0.18-0.09,0.24l-7.31,5.43c-0.09,0.07-0.11,0.19-0.07,0.29
		c0.1,0.29,0.07,0.62-0.11,0.87c-0.21,0.3-0.58,0.44-0.92,0.33l-0.54-0.2c-1.05,0.38-1.98,0.72-3.03,1.1
		c-0.41,0.68-0.99,1.11-1.6,1.12c-0.16,0-0.38-0.02-0.63-0.13c-14.24,9.8-21.47,14.52-21.7,14.16c-0.23-0.36,6.36-5.66,19.76-15.9
		c-0.23-0.48-0.24-0.87-0.23-1.09c0.08-1.25,1.34-2.24,2.47-2.34c0.23-0.02,0.42,0,0.55,0.02c0.07-0.09,0.14-0.17,0.2-0.26
		c0.31-0.39,0.61-0.79,0.92-1.18c-0.12-0.17-0.28-0.43-0.4-0.78c-0.08-0.25-0.31-0.95-0.06-1.25c0.23-0.28,0.89-0.21,1.6,0.24
		c0.08,0.05,0.19,0.05,0.26-0.02c0.57-0.53,1.1-0.81,1.88-1.7c0.1-0.11-0.06,0.07,1.31-1.29c0.6-0.59,1.09-1.09,1.43-1.43
		c0.31-0.29,0.63-0.58,0.94-0.87c0.15-0.14,0.27-0.24,0.36-0.31c0.13-0.11,0.22-0.17,0.21-0.25c-0.01-0.06-0.07-0.08-0.15-0.18
		c-0.07-0.09-0.11-0.19-0.13-0.27c-0.34-0.61-0.88-1.42-1.66-2.25c-0.23-0.25-1.21-1.26-2.77-2.14c-1.28-0.72-2.39-1.03-2.89-1.16
		c-0.47-0.12-0.88-0.18-1.17-0.22c-1.61-0.06-2.96-0.99-3.37-2.32c-0.05-0.15-0.36-1.19,0.15-2.25c0.73-1.52,2.45-1.64,2.62-1.65
		c0.23-0.01,2.06-0.07,2.85,1.49c0.51,1.01,0.39,2.3-0.31,3.28c-0.19,0.26-0.46,0.58-0.82,0.87c-0.17,0.14-0.34,0.26-0.5,0.36
		c0.37,0.09,0.87,0.23,1.45,0.4c0.62,0.18,0.93,0.28,1.34,0.45c0.37,0.15,0.85,0.34,1.4,0.69c0.4,0.25,0.7,0.5,1.3,1
		c0.61,0.51,0.92,0.77,1.19,1.05c0.44,0.44,1.05,1.17,1.59,2.32c-0.09-0.36-0.18-0.79-0.23-1.27c-0.06-0.61-0.06-1.14-0.02-1.58
		c0-1.33,0.18-2.4,0.34-3.12c0.14-0.64,0.44-1.98,1.19-3.43c0.41-0.79,0.65-1.68,1.15-2.41c0.09-0.12,0.28-0.39,0.27-0.74
		c-0.01-0.46-0.34-0.63-0.5-1.03c-0.34-0.84,0.44-1.95,0.61-2.18c0.88-1.25,2.26-1.39,2.37-1.4c0.18-0.02,1.91-0.14,2.83,1.27
		c0.93,1.42,0.2,3.11,0.06,3.43c-0.16,0.36-0.63,1.46-1.8,1.92c-1.46,0.57-2.75-0.35-2.89-0.45c-0.11,0.12-0.19,0.24-0.29,0.36
		c0.03,0.03,0.07,0.06,0.1,0.08c-0.04-0.03-0.07-0.05-0.1-0.08c-1.28,1.51-1.95,2.97-2.27,3.9c0.06,0.05,0.12,0.1,0.18,0.15
		c-0.06-0.04-0.14-0.09-0.19-0.13c-0.43,1.24-0.82,2.36-0.53,3.7c0.26,1.16,0.96,2.2,1.32,2.74c0.32,0.48,0.63,0.86,0.86,1.11
		c0.15-0.06,0.39-0.17,0.65-0.33c0.72-0.45,1-0.96,1.74-1.76c0.36-0.39,0.47-0.47,0.96-0.96c0.68-0.67,1.78-1.83,3.63-3.92
		c6.8-4.72,10-6.95,10.04-7.01c0,0,0.02-0.03,0.06-0.05c0.03-0.02,0.07-0.03,0.11-0.03c1.06-0.01,1.8,0.02,1.8,0.02
		c0.5,0.04,0.75,0.06,1.08-0.01c0.33-0.07,0.66-0.28,1.31-0.7c0.89-0.57,1.28-0.91,1.72-1.18c0.07-0.04,0.15-0.1,0.31-0.22
		c0.27-0.19,0.31-0.24,0.34-0.31c0.05-0.15-0.06-0.3-0.15-0.47c-0.19-0.36-0.34-0.88-0.25-1.27c0.07-0.34,0.34-0.65,0.66-0.77
		c0.55-0.21,1.11,0.24,1.59,0.62c0.23,0.18,0.68,0.54,1.03,1.2C98.21,43.23,98.49,44.85,97.93,45.23z"/>
	<path class="st3" d="M44.47,72.77"/>
	<path class="st3" d="M71.48,56.42"/>
	<path class="st3" d="M53.22,56.5"/>
</g>
</svg>
