<?xml version="1.0" encoding="utf-8"?>
<!-- Generator: Adobe Illustrator 24.0.2, SVG Export Plug-In . SVG Version: 6.00 Build 0)  -->
<svg version="1.1" id="Слой_1" xmlns="http://www.w3.org/2000/svg" xmlns:xlink="http://www.w3.org/1999/xlink" x="0px" y="0px"
	 viewBox="0 0 122 125" style="enable-background:new 0 0 122 125;" xml:space="preserve">
<style type="text/css">
	.st0{fill:#3D75B9;stroke:#000000;stroke-miterlimit:10;}
</style>
<path class="st0" d="M93.8,71.5c-4.8,6-9.4,11.9-14.1,17.7c-1.8,2.2-3.8,4.1-5.9,6C73,95.9,72,96.5,71,96.6c-5,0.6-10,1.4-15,1.6
	c-4,0.2-9-5.5-8.7-9.3c0-0.5,0-1.1-0.2-1.6c-2.5-5.5-4.9-11-7.5-16.5c-1.1-2.3-2.5-4.4-3.9-7c1.9-0.7,4-1.4,6-2.1
	c1.3,4.5,2.3,8.6,3.8,12.6c0.6,1.6,2,3,3.3,4.3c0.4,0.4,1.8,0.6,2.4,0.3c0.5-0.3,0.8-1.5,0.7-2.1c-1.5-4.9-3.2-9.9-4.7-14.8
	c-0.3-0.9-0.7-2.7-0.5-2.8c1.5-0.6,3.2-1.2,4.9-1.2c0.6,0,1.7,1.4,1.8,2.3c0.9,4.5,1.6,8.9,2.3,13.4c0.3,1.8,1.1,3,3.6,3.1
	c0.1-1,0.2-1.8,0.1-2.7c-0.8-5.4-1.5-10.7-2.4-16c-0.3-1.9-0.2-3.1,2.2-3.1c2.3,0,4.6,0.1,6.9,0.1c-0.4,1.9-0.9,3.8-1.1,5.8
	c-0.5,4.3-1,8.6-1.2,13c0,1,1.1,2,1.6,3.1c1.2-0.7,2.7-1.2,3.5-2.2c0.7-0.7,0.8-2,0.8-3.1c0.3-4.8,0.5-9.6,0.6-14.4
	c0-1.9,1-2.6,2.8-2.7c0.9,0,1.8,0,2.6,0.1c4.4,0.7,4.3,1.6,2.5,5.4c-1.8,3.8-2.7,8-3.5,12.2c-0.5,2.6-0.2,5.4-0.1,8.1
	c0.1,2.8,1.7,3.6,4.1,2c3.4-2.3,6.4-5.3,7-9.3c0.7-4.6,1.8-3.9,5.5-2.7C92.3,70.6,93.1,71.2,93.8,71.5z"/>
<path class="st0" d="M58.1,115c-0.6-4.2-1.1-8-1.6-11.7c-0.4-0.1-0.8-0.1-1.1-0.2c-0.4,0.9-0.9,1.7-1.1,2.6
	c-0.5,2.3-0.8,4.6-1.5,6.9c-0.5,2-4.2,2.9-5.8,1.4c-0.4-0.4-0.4-1.3-0.4-1.9c0.2-3.9,0.4-7.9,0.9-11.8c0.1-0.7,1.5-1.8,2.1-1.7
	c7.5,1.5,14.9,0,22.2-1.2c1.6-0.3,2.2,0.5,2.1,1.8c-0.1,1-0.2,2-0.6,2.9c-1.4,3.7-2.9,7.3-4.2,11c-0.5,1.5-1.4,1.9-3,1.8
	C63.4,114.9,60.6,115,58.1,115z"/>
<path class="st0" d="M71,52c5.3-4.9,5.1-10.4,5.1-15.8c0-0.8,0.7-2.2,1-2.2c1.6,0,3.2,0.3,4.7,0.8c0.4,0.1,0.5,1.6,0.3,2.4
	c-1.5,4.4-2.3,8.7-1.3,13.3c0.4,1.6-0.4,2.7-2.4,2.5C76.3,52.7,74.1,52.4,71,52z"/>
<path class="st0" d="M62.8,39.3c0.5,3.1,1.1,6.2,1.5,9.3c0.1,1.1,0.2,3.2-0.3,3.3c-1.7,0.6-3.7,0.6-5.6,0.6c-0.2,0-0.6-1.2-0.6-1.8
	c-0.1-5.2-0.2-10.4-0.3-15.6c0-0.7,0.1-1.9,0.4-1.9c1.6-0.3,3.2-0.4,4.8-0.3c0.3,0,0.8,1.3,0.8,2c0,1.4-0.2,2.9-0.3,4.3
	C63.1,39.3,63,39.3,62.8,39.3z"/>
<path class="st0" d="M44.8,51.8c-1-3.5-2.1-7.1-3.1-10.6c-0.2-0.9-0.5-2.6-0.3-2.7c1.5-0.4,3.2-0.8,4.7-0.7c0.5,0,1.3,1.2,1.5,2
	c0.4,2,0.1,4.2,0.7,6.2c0.7,2.6,1.8,5.2,3,7.6c0.6,1.4,0.3,2-1.1,2.4c-0.1,0-0.2,0-0.3,0.1C44.6,57.5,44.3,57.3,44.8,51.8z"/>
<path class="st0" d="M94.7,69c-1.5-0.2-2.3-0.2-3.1-0.4c-1.8-0.4-2.2-1.3-1-2.7c2.1-2.6,3.9-5.3,6.2-7.8c0.8-0.9,2.9-1.8,3.8-1.5
	c1.9,0.8,0.8,2.4,0,3.7c-1.4,2.3-2.6,4.6-4,6.9C95.9,68.1,95,68.7,94.7,69z"/>
<path class="st0" d="M41,59.2c-2.4,1.1-4.2,1.9-5.9,2.7c-2.3-4.7-4.6-9.3-6.9-14.1c1.1-0.2,2.4-0.5,4.1-0.8
	C33.3,52.2,36.4,55.9,41,59.2z"/>
<path class="st0" d="M62.1,31.3c-1.1,0.1-3,0.3-5.1,0.6c0-4.4,0-8.5,0-13c1-0.1,2.3-0.3,3.5-0.1c0.5,0.1,1.3,1,1.3,1.5
	C62,23.9,62,27.4,62.1,31.3z"/>
<path class="st0" d="M81.4,20.3c1.1,0.2,2.7,0.6,3.7,0.8c-0.7,3.7-1.3,6.8-1.8,9.9c-0.4,2.4-2.6,2.7-5.5,0.9
	C78.9,28.1,80.1,24.5,81.4,20.3z"/>
<path class="st0" d="M46.8,35.3c-1.9,0.6-3,1.2-4,1.1c-0.8-0.1-2-0.8-2.3-1.5c-0.9-2.4-1.4-5-2.3-7.5c-0.7-1.8,0.5-2,1.8-2.3
	c1.3-0.3,2.7-0.7,2.7,1.2C42.7,29.6,43.4,32.6,46.8,35.3z"/>
<path class="st0" d="M31.3,45.9c-1.7,0.4-3.1,0.8-4.6,1.2c-0.8-2.5-1.5-4.8-2.3-7.2c1.9-1.1,3.4-1.7,4.2,1.3
	C29,42.8,30.2,44.1,31.3,45.9z"/>
<path class="st0" d="M109.3,47.2c-0.6,0.8-1.2,1.6-1.8,2.4c-1.3,1.6-2.6,3.1-3.8,4.7c-1.5,2-3,0.4-5.3,0.3c3.8-3.2,6.8-5.7,9.9-8.3
	C108.6,46.6,109,46.9,109.3,47.2z"/>
<path class="st0" d="M57.3,18.1c0.2-2.8,0.2-4.8,0.5-6.8c0.1-0.7,1.1-1.4,1.7-2c0.6,0.8,1.7,1.5,1.8,2.3c0.2,1.7,0.2,3.5-0.4,5
	C60.5,17.3,58.7,17.5,57.3,18.1z"/>
<path class="st0" d="M82,18.9c0.5-2.1,0.8-3.9,1.5-5.7c0.2-0.7,1.3-1.1,1.9-1.6c0.3,0.7,0.9,1.3,0.9,2c0,1.1-0.4,2.1-0.4,3.2
	C85.5,20.1,85.3,20.3,82,18.9z"/>
<path class="st0" d="M20.4,32c5.1-1,3.4,4.4,6.7,4.7c0,0.2-0.1,0.5-0.1,0.7c-1,0.4-2,0.7-3.1,1.1C22.7,36.4,21.7,34.4,20.4,32z"/>
<path class="st0" d="M37.8,16.8c1,2.1,2,4.1,3.2,6.5c-0.9,0.2-1.9,0.4-3.6,0.8c0.8-2.7-2.4-4.9-0.6-7.4
	C37.1,16.8,37.4,16.8,37.8,16.8z"/>
</svg>
