<?xml version="1.0" encoding="utf-8"?>
<!-- Generator: Adobe Illustrator 24.0.2, SVG Export Plug-In . SVG Version: 6.00 Build 0)  -->
<svg version="1.1" id="Слой_1" xmlns="http://www.w3.org/2000/svg" xmlns:xlink="http://www.w3.org/1999/xlink" x="0px" y="0px"
	 viewBox="0 0 122 125" style="enable-background:new 0 0 122 125;" xml:space="preserve">
<style type="text/css">
	.st0{opacity:0.28;fill:#3D75B9;stroke:#000000;stroke-miterlimit:10;enable-background:new    ;}
	.st1{fill:#3D75B9;stroke:#000000;stroke-miterlimit:10;}
	.st2{fill:#FF0000;}
</style>
<path class="st0" d="M74.4,12.8h13.5c0,0,13.7-2.3,20.5-3.5v-4h-95v4l26,3.3l12,0.2h3.1v101.1h-3.7l-12,0.2l-26,3.3v4h95v-4
	c-6.8-1.2-20.5-3.5-20.5-3.5H73.8h-6.3V12.8H74.4z"/>
<path class="st1" d="M63.4,63.3c-1-3.2-1.8-6.4-2.8-9.6c-0.7-2.1-2.3-3-4.8-3.1c-2.5-0.1-4.8,1-5.8,2.7c-1.7,3.3-3.4,6.5-5.1,9.8
	c-0.3,0.7-0.8,0.9-1.6,0.8c-6.3-0.2-12.7-0.3-19-0.4c-0.9,0-1.9-0.1-2.8,0c-0.7,0-1.1-0.1-1.4-0.7c-2.3-4.5-4.2-9.1-4.7-13.9
	c-0.9-8.9,2.5-16.4,11.5-21.6c4.3-2.5,9.2-3.5,14.4-3.2c9.8,0.4,16.7,4.7,22.3,11c0.2,0.2,0.4,0.4,0.5,0.6c1.7-1.5,3.2-3.1,4.9-4.4
	c5.3-4.1,11.6-6.6,18.9-6.4c8.7,0.2,15.5,3.4,20.4,9.5c3.2,4,4.6,8.5,4.5,13.2c-0.1,4.4-1.3,8.6-3.3,12.6c-0.7,1.5-1.5,3-2.4,4.5
	c-0.2,0.3-0.9,0.7-1.3,0.7c-5.2-0.1-10.4-0.2-15.6-0.3c-0.9,0-1.2-0.5-1.4-1.1c-1.2-4.2-2.3-8.4-3.6-12.6c-1.4-4.5-2.8-9-4.3-13.5
	c-0.7-2.1-2.9-3.3-5.5-3c-3.1,0.3-5,2-5.9,5.1c-0.9,3.5-1.8,7-2.8,10.5C65.8,54.7,64.6,59,63.4,63.3z"/>
<path class="st1" d="M76.3,61.7c0.5,2,0.9,4,1.5,5.9c0.5,1.6,1.2,3.1,1.9,4.5c0.7,1.5,2.3,2.2,4.2,2.3c3.3,0.2,6.7,0.3,10,0.4
	c2,0.1,3.9,0.1,6.3,0.1c-1.8,1.9-3.4,3.6-5,5.2c-4.9,4.8-10.4,9-16.6,12.6c-4.3,2.5-8.9,4.7-13.3,7c-1.5,0.8-2.7,0.6-4.2-0.2
	C53.9,96,47.3,92,41.3,87.3c-5-3.9-9.5-8.2-13.3-12.8c-0.2-0.3-0.4-0.5-0.5-0.8c0-0.1,0-0.1,0-0.3c4.1,0.1,8.1,0.2,12.1,0.2
	c3.2,0,6.3,0,9.5-0.1c1.4-0.1,2.8-0.4,3.9-1.6c0.2,0.9,0.4,1.6,0.6,2.4c1.3,5.3,2.6,10.7,4.1,16c0.5,2,2.7,3,5.1,2.9
	c3-0.2,5.1-1.7,5.6-3.6c0.9-3.7,2.1-7.3,3.1-11c1.5-5.3,2.9-10.7,4.4-16.1c0.1-0.3,0.2-0.5,0.2-0.8C76.1,61.7,76.2,61.7,76.3,61.7z"
	/>
<path class="st1" d="M54.5,61.5c-1.4,2.7-2.7,5.2-4,7.7c-0.5,1-1.3,1.5-2.7,1.5c-7.8-0.2-15.5-0.3-23.3-0.4c-1.6,0-2.4-0.7-2.4-1.8
	c0-1,1-1.7,2.5-1.7c7,0.1,14,0.2,21,0.4c0.9,0,1.4-0.1,1.8-0.9c1.8-3.7,3.8-7.3,5.7-11c0.4-0.8,1.1-1.5,2.3-1.4
	c1.2,0.1,1.8,0.8,2,1.8c1.7,7.6,3.4,15.2,5.1,22.8c0.1,0.3,0.1,0.5,0.4,0.8c0.7-2.5,1.4-4.9,2-7.4c2.9-10.7,5.8-21.3,8.8-32
	c0.3-1.3,1.2-2,2.3-1.9c1.2,0.1,1.8,0.8,2.1,1.8c2.6,9,5.3,18,7.8,27c0.3,1.1,0.8,1.3,2.1,1.3c6.8,0.1,13.5,0.2,20.3,0.3
	c0.4,0,0.8,0,1.2,0.1c1,0.2,1.7,0.8,1.6,1.7s-0.6,1.6-1.8,1.7c-0.8,0.1-1.7,0-2.6,0c-7.1-0.1-14.2-0.2-21.3-0.4
	c-2.1,0-2.4-0.3-2.9-2c-2-6.7-3.9-13.4-5.9-20.1c-0.2-0.6-0.3-1.1-0.6-1.7c-0.7,2.3-1.3,4.6-1.9,6.8c-2.5,9-4.9,18-7.4,27
	c-0.6,2.2-1.2,4.4-1.8,6.6c-0.3,1-0.8,1.9-2.3,1.8c-1.2,0-1.8-0.8-2.1-2.1c-0.9-4.3-1.9-8.5-2.8-12.7c-0.9-4.2-1.8-8.3-2.8-12.5
	C54.8,62.3,54.7,62,54.5,61.5z"/>
<path class="st2" d="M110,5"/>
<rect x="49" y="7" class="st2" width="0" height="2"/>
</svg>
