<?xml version="1.0" encoding="utf-8"?>
<!-- Generator: Adobe Illustrator 24.0.2, SVG Export Plug-In . SVG Version: 6.00 Build 0)  -->
<svg version="1.1" id="Слой_1" xmlns="http://www.w3.org/2000/svg" xmlns:xlink="http://www.w3.org/1999/xlink" x="0px" y="0px"
	 viewBox="0 0 122 125" style="enable-background:new 0 0 122 125;" xml:space="preserve">
<style type="text/css">
	.st0{fill:#E0EEFF;}
	.st1{fill:none;}
	.st2{fill:#3D75B9;stroke:#000000;stroke-miterlimit:10;}
	.st3{stroke:#000000;stroke-miterlimit:10;}
	.st4{fill:#FFFFFF;stroke:#000000;stroke-miterlimit:10;}
</style>
<path class="st0" d="M-21.85,37.3"/>
<rect x="26.03" y="24.58" class="st1" width="84" height="86.89"/>
<path class="st1" d="M83.59,107.04H35.36c-5.54,0-10.04-4.49-10.04-10.04V45.2c0-5.54,4.49-10.04,10.04-10.04h48.24
	c5.54,0,10.04,4.49,10.04,10.04V97C93.63,102.54,89.14,107.04,83.59,107.04z"/>
<g>
	<path class="st2" d="M86.55,28.15h-6.94v7.01h6.3c4.59,0,8.32,3.72,8.32,8.32v55.25c0,4.59-3.72,8.32-8.32,8.32H33.63
		c-4.59,0-8.32-3.72-8.32-8.32V43.48c0-4.59,3.72-8.32,8.32-8.32h4.04v-7.01h-5.79c-8.1,0-14.66,6.57-14.66,14.66v56.61
		c0,8.1,6.57,14.66,14.66,14.66h54.67c8.1,0,14.66-6.57,14.66-14.66V42.81C101.22,34.71,94.65,28.15,86.55,28.15z"/>
	<path class="st2" d="M73.89,25.89h-3.27c-0.43-1.49-2.15-0.8-4.91-3.45c-2.8-2.69-3.4-5.69-6.14-6.05
		c-0.42-0.06-0.74-0.03-0.95-0.01c-3.03,0.28-3.93,3.22-7.17,6.06c-3.01,2.64-4.45,2.04-4.83,3.45h-3.27
		c-2.07,0-3.74,1.68-3.74,3.74v3.68c0,2.07,1.68,3.74,3.74,3.74h30.53c2.07,0,3.74-1.68,3.74-3.74v-3.68
		C77.63,27.57,75.96,25.89,73.89,25.89z"/>
</g>
<path class="st2" d="M76.64,74.49l3.97,0l0.01,0c-0.91,11.49-11.44,20.55-24.29,20.55c-13.45,0-24.36-9.92-24.36-22.16
	c0-10.35,7.79-19.03,18.33-21.47c0,0,1.07,3.76,1.07,3.76l0,0c-8.95,1.97-15.6,9.29-15.6,18.01c0,10.24,9.15,18.53,20.44,18.53
	c10.8,0,19.65-7.6,20.39-17.23"/>
<path class="st2" d="M66.82,64.49c-0.89-0.89-2.33-0.89-3.21,0l-9.6,9.6l-5.25-4.22c-1.13-0.91-2.79-0.73-3.7,0.4
	c-0.91,1.13-0.73,2.79,0.4,3.7l6.35,5.1c0.2,0.16,0.43,0.28,0.66,0.37c0.88,0.6,2.1,0.51,2.88-0.27L66.82,67.7
	C67.7,66.81,67.7,65.37,66.82,64.49z"/>
<circle class="st3" cx="52.81" cy="52.75" r="3.17"/>
<path class="st4" d="M88.53,54.87c-0.17-0.48-0.73-1.95-2.16-3.05c-0.49-0.38-1.05-0.66-2.18-0.86c-0.29-1.33-1.02-2.27-1.87-2.27
	c-1.11,0-2.01,1.6-2.01,3.57c0,1.97,0.9,3.57,2.01,3.57c0.48,0,0.91-0.31,1.26-0.81c0.74,0.7,1.05,1.53,1.15,1.82
	c0.63,1.8,0.05,3.62-1.06,6.1c-2.38,5.34-3.57,8.01-5.08,8.1c-2.25,0.14-3.97-3.76-6.03-8.43c-1.07-2.43-1.43-4.04-0.86-5.55
	c0.29-0.78,0.76-1.35,1.16-1.74c0.35,0.51,0.79,0.83,1.28,0.83c1.11,0,2.01-1.6,2.01-3.57s-0.9-3.57-2.01-3.57
	c-0.82,0-1.52,0.88-1.84,2.13c-0.85,0.2-1.23,0.42-1.49,0.59c-0.45,0.29-2.1,1.41-2.9,3.46c-0.89,2.29-0.33,4.71,1.37,8.38
	c3.26,7.05,5.98,12.93,9.55,12.72c2.4-0.14,4.28-4.17,8.04-12.22C88.61,60.34,89.52,57.59,88.53,54.87z"/>
</svg>
